<svg xmlns="http://www.w3.org/2000/svg" xmlns:xlink="http://www.w3.org/1999/xlink" width="1000" height="1000" viewBox="0 0 1000 1000">
  <defs>
    <style>
      .cls-1 {
        fill: url(#radial-gradient);
      }

      .cls-2, .cls-3, .cls-4, .cls-5 {
        fill-rule: evenodd;
      }

      .cls-3, .cls-5 {
        fill: #fff;
      }

      .cls-4 {
        fill: blue;
      }

      .cls-5 {
        opacity: 0.5;
      }
    </style>
    <radialGradient id="radial-gradient" cx="500" cy="500" r="450" gradientUnits="userSpaceOnUse">
      <stop offset="0" stop-color="#fff"/>
      <stop offset="0.932" stop-color="#ff75ac"/>
      <stop offset="1.022"/>
      <stop offset="1.03"/>
    </radialGradient>
  </defs>
  <circle id="Ellipse_1_copy_5" data-name="Ellipse 1 copy 5" class="cls-1" cx="500" cy="500" r="450"/>
  <path id="Color_Fill_6" data-name="Color Fill 6" class="cls-2" d="M547.046,150.163c11.258,9.115,15.6,20.576,15.317,41.573l21.882-13.128c-5.712,32.168,6.28,44.443,35.011,48.136,5.088-60.494,71.554-74.8,113.785-41.572q-2.187-10.94-4.376-21.881l21.882,19.693c37.471,97.543-56.444,123.621-30.635,181.607L752.735,399.6H730.853c11.259,16.031,32.8,54.5,19.694,85.334-5.976-7.548-8.62-14.766-17.506-19.693,6.782,22.875-.994,49.164-6.564,65.641l-4.376-2.188c-2.241-10.466-4.19-12.157-10.941-17.5q-6.564,25.161-13.129,50.325l70.021-32.821q-6.562,19.691-13.129,39.385c9.788,4.911,17.4,20.547,15.318,30.633l35.011,4.376-4.377,2.188c-26.071,29.613-68.662,37.139-100.656,61.265l17.5,30.633h-8.752l-26.259-10.94v8.752l26.259,63.453c-18.077-10.179-42.538-8.624-65.646-4.376,18.636,101.247-76.753,132.739-111.6,56.889-24.949,7.751-64.357,4.013-89.716,0C428.061,880.564,305.438,859.5,332.6,754.063h-4.377c-16.42-8.935-42.331-2.628-56.892,2.188v-2.188c10.733-20.13,22.421-38.468,24.07-67.829l-32.823,10.94q8.752-17.5,17.5-35.009c-36.458-9.428-76.019-35.785-100.656-59.077l35.011-4.376c-0.533-10.241,4.778-25.108,15.317-30.633L216.63,528.694l70.022,32.821q-8.752-24.066-17.5-48.137l-4.377,2.188q-4.375,7.658-8.753,15.316v-4.376c-8.817-11.884-12.318-42.123-6.564-61.265l-19.694,17.5c-1.275-41.233,8.018-62.8,24.07-85.334l-24.07,2.188q1.1-2.188,2.188-4.376c110.974-54.287-63.856-119.861-30.634-172.856,5.752-9.176,16.2-6.2,24.07-13.128,13.488-11.865,12.33-28.227,30.634-37.2-4.359,7-8.773,13.887-4.376,24.069,26.312-58.31,110.114-5.781,113.786,45.949,47.12-22.4,96.649-43.29,129.1-80.958l6.565,4.376c2.586,9.468,4.809,16.244,2.188,26.257C523.749,184.859,537.932,168.587,547.046,150.163Z"/>
  <path id="Color_Fill_5" data-name="Color Fill 5" class="cls-3" d="M669.584,180.8c24.977-.373,42.331,1.455,52.517,15.316,4.709,6.409,3.523,11.369,10.94,15.316,2.832-5.21,5.276-10.39,10.941-13.128v4.376c24.372,30.426-16.86,80.46-26.258,94.086h-4.376c-1.38-3.838-.422-2.126-2.188-4.376V288.01c21.863-7.341,29.1-32.925,28.446-63.454h-2.188v2.188c-4.968,4.768-5.487,8.25-13.129,10.941,0.754-19.452-3.476-32.6-17.506-37.2-25.886-20.9-59.377,13.115-72.21,21.88v-4.376c4.665-5,4.669-11.509,8.753-17.5C649.427,191.531,661.285,187.733,669.584,180.8Zm-387.308,8.752a280.179,280.179,0,0,1,37.2,2.188c10.916,13.973,23.49,18.043,28.446,39.385h-2.188c-11.947-18.4-32.066-26.708-63.457-26.257-5.245,5.226-24.07,21.88-24.07,21.88-3.271-3.553-3.4-4.427-4.377-10.94C263.094,207.166,273.143,198.472,282.276,189.548Zm266.958,17.5,21.882-2.188c-0.277,15.381,4.1,22.631,15.317,26.257,9.207,7.165,21.849,4.528,35.011,8.752,13.246,4.25,30.582,11.76,41.576,19.692,38.055,27.456,28.1,73.036,48.14,115.966h-8.753c-2.973-2.76-3.87-2.987-8.753-4.376v2.188c18.282,12.458,31.534,40.944,37.2,65.642h-2.188c-6.918-10.578-20.266-17.011-37.2-17.5v2.188h2.188c17.129,18.021,30.3,32.12,30.635,67.83H722.1c-6.152-6.442-10.889-8.787-24.07-8.752,0.936,23.458.191,42.019-4.377,61.265h-2.188c-8.685-13.528-22.837-13.833-45.952-13.129a39.507,39.507,0,0,0-6.564-8.752v-4.376h4.376c2.833,1.92,5.4,1.957,10.941,2.188v-4.376c-19.118-12.613-20.862-37.116-26.258-63.453l-15.318-10.94c-33.671-1.01-98.387,16.516-113.785,32.82-27.778-7.365-92.621-14.5-118.162-8.752-10.086,16.707-17.3,43.713-26.258,61.265,7.834,0.912,5.506-1.032,8.752,4.376-7.837,7.8-7.591,12.881-24.07,13.129-7.735-7.629-17.73-12.86-32.822-13.129-4.741,4.629-12.014,9.573-17.506,13.129-3.7-23.684-3.368-46.261,0-70.018-14.86,1.961-20.765,10.839-30.634,17.5V463.053l15.317-30.632h-6.565c-4.1,3.308-10.9,6.21-15.317,8.752v-10.94c7.3-9.428,8.893-22.487,15.317-32.821,5.893-9.479,15.682-17.025,21.882-26.257h-4.376c-4.2,3.878-6.863,4.148-15.317,4.376v-2.188c18.61-14.65,12.954-61.274,26.258-80.957,10.067-14.9,35.615-29.7,54.7-35.009l24.07-2.188c12.564-5.539,23.335-20.246,37.2-26.257,15.935-6.908,36.407-6.672,50.328-15.316,9.142-5.676,15.172-15.7,26.258-19.692v2.188c6.659,6.943,3.573,14.389,0,21.88h10.941c5.606-4.46,13.29-4.76,19.693-8.752,8.969-5.591,13.194-15.744,24.071-19.692v2.188C546.778,195.946,548.171,199.446,549.234,207.052ZM240.7,204.864c1.645,2.348,1.316,2.069,2.188,6.564h-4.376Q239.606,208.146,240.7,204.864ZM221.006,215.8c7.6-.287,17.576-0.731,21.882,2.188,5.874,1.951,5.666,2.25,8.753,6.564h2.188v2.188h-4.376c-5.847-4.035-15.565-1.452-21.882,0-4.693,7.951-9.232,26.72-15.317,32.821v-2.188c-2.976-2.177-3.952-4.22-6.565-6.564a109.682,109.682,0,0,1,2.188-24.069Q214.441,221.275,221.006,215.8Zm21.882,30.633h-8.752V235.5c6.139-3.311,10.862-4.472,21.881-4.376,1.427,4.1,2.083,8.56,2.189,15.316h-4.377c-2.363-3.955-5.619-9.556-8.752-13.128V235.5C243.157,238.33,243.12,240.894,242.888,246.437Zm-13.129,4.376c10.072-.015,13.59,1.56,19.694,4.376v2.188c-17.91-.36-22.556,5.9-21.882,24.069a13.35,13.35,0,0,1,4.376,4.376h-4.376c-5.5-8.2-8.7-8.895-8.753-24.069,1.76-2.234.777-.6,2.188-4.376A39.49,39.49,0,0,0,229.759,250.813Zm13.129,10.94c6.516,5.6,5.973,14.55,10.941,21.881,5.521,8.146,15.762,9.262,19.694,19.692-1.492,1.688-2.869,4.883-4.376,6.564C260.068,296.682,237.522,281.757,242.888,261.753ZM437.637,438.985c0.2-22.554-3.357-39.082-4.377-59.077,11.882-7.708,32.351-30.007,37.2-43.761-20.717-.452-38.453-6.85-56.892-10.941L382.932,277.07h-2.188c-3.83,13.261-18.109,40.08-28.446,48.136-11.586,8.7-39.761,12.066-54.7,15.317V344.9c6.059,3.853,34.768,31.707,37.2,37.2v30.632c-3.6,5.419-2.458,19.476-2.188,28.445h4.376c4.766-3.939,45.129-23.7,52.517-21.881C405.287,423.176,419.022,435.881,437.637,438.985Zm223.194,2.188c-2.623-18.945-8.232-39.3-8.752-61.265,12.284-7.968,32.161-29.39,37.2-43.761-20.543-.451-38.328-6.832-56.893-10.941Q617.07,301.14,601.75,277.07h-2.188c-3.829,13.261-18.109,40.08-28.446,48.136-12.474,8.669-38.958,11.877-54.705,15.317V344.9c19.529,12.41,37.813,31.969,37.2,65.641-3.827,5.784-2.463,21.213-2.188,30.633H555.8c4.622-3.8,45.628-23.567,52.516-21.881C626.158,423.661,639.7,439.386,660.831,441.173ZM374.179,336.147c19.971-.833,32.528,3.261,37.2,17.5,4.178,5.2,4.5,12.006,4.376,21.88-11.878,12.831-13.595,24.1-39.387,24.069-7.463-6.73-15.846-6.623-19.694-17.5-7.639-9.294-2.691-22.484,0-32.821A153.051,153.051,0,0,0,374.179,336.147Zm218.819,0c19.97-.833,32.527,3.261,37.2,17.5,4.178,5.2,4.5,12.006,4.376,21.88-8.11,8.344-15.728,15.958-24.07,24.069-18,.578-30.709-4.517-35.011-17.5-7.638-9.294-2.69-22.484,0-32.821A153.149,153.149,0,0,0,593,336.147Zm-118.162,91.9c-3.355,5.391-5.014,4.98-6.565,13.129,6.542,6.1,13.586,13.156,19.694,19.692h15.317c8.717-8.926,19.451-12.94,21.882-28.444a13.353,13.353,0,0,1-4.376-4.377H474.836Zm28.446,148.787c-48.655,1.456-114.191-4.238-118.162-43.76-5.436-8.331-.242-41.41,2.188-52.513,3.865-2.1,3.677-2.751,8.753-4.377,15.8-8.58,73.536,11.208,102.845,4.377,33.765-7.87,68.374-23.8,105.033-24.069,26.811,39.331,20.34,68.413-8.753,98.462-3.838-1.38-2.126-.422-4.376-2.188-6.085-4.6-12.712-14.07-15.318-21.881,21.588-9.512,30.876-28.081,24.07-59.077-3.864-2.1-3.677-2.75-8.752-4.376-10.183-6.444-26.546.711-35.011,4.376-12.424,5.379-29.411,13.886-43.764,17.5-37.76,9.519-78.864-8.384-109.409-2.188-7,10.8-11.1,15.327-10.941,35.008,7.779,4.584,17.112,12.175,26.258,15.317C450.822,548.742,497.577,539.13,503.282,576.831ZM573.3,473.993h8.753c2.85,5.291,3.942,6.2,4.376,15.317-21.155,13.978-38.093,21.547-70.022,28.444-9.846,2.127-11.149-5.568-17.5-4.376-8.085,1.517-38.157,10.634-52.517,4.376q-1.093-3.282-2.188-6.564c-4.034-1.573-23.044,8.935-37.2-2.188-1.92-2.833-1.957-5.4-2.188-10.94,6.455-3.476,12.519-4.541,24.07-4.376,25.039,23,106.743-3.287,124.726-10.94C562.047,479.155,568.036,480.3,573.3,473.993ZM275.711,627.156q-1.093,6.564-2.188,13.129h-4.376c-3.456-5.489-6.26-8.612-13.13-10.94-1.811,7.1,1.073,3.343-4.376,6.564-12.3-11.4-33.362-15.26-43.764-28.445,9.3,0.166,18.365-.58,21.882-6.564-5.073-10.381,10.958-22.54,15.318-30.633-5.085-5.277-8.856-13.82-10.941-21.88h2.188c11.114,12.594,44.941,16.548,54.7,28.444,4.7,5.722-4.568,4.707,6.565,10.941-1.831,4.09-3.02,5.826-4.376,10.94H288.84c-1.045-7.931-.573-7.969-6.564-10.94v2.188a43.547,43.547,0,0,0-13.129,13.128c9.077-.427,14.062-1.318,17.5,4.376a34.84,34.84,0,0,0-10.941,10.94c-3.452-2.273-8.913-10.129-10.941-6.564-3.653,3.925-5.145,9.015-6.564,15.316h17.5Zm433.261,0h17.5c-1.058-8.373-3.6-11.425-6.565-17.5-3.579,2.432-11.194,12.276-13.129,8.752-4.389-3.056-4.52-2.945-6.564-8.752-1.645-2.347-1.316-2.069-2.188-6.564h17.5v-4.376a43.547,43.547,0,0,1-13.129-13.128h-2.188v2.188c-4.713,6-1.662,8.489-10.941,10.94l-6.565-8.752,13.129-6.564q-1.093-3.282-2.188-6.565c4.725-5.672,47.55-23.908,56.893-26.256v2.188c-5.084,5.277-8.855,13.82-10.941,21.88,12.677,3.269,17.331,19.461,15.317,30.633,8.181,0,17.007.836,21.882,4.376h-2.188c-10.182,10.373-30.662,22.113-45.952,26.257-1.812-7.1,1.072-3.344-4.376-6.564-2.172,3.542-8.53,12.433-10.941,8.752C709.108,634.449,709.7,634.948,708.972,627.156ZM667.4,552.763h10.941c2.322,4.177,5.416,9.766,8.753,13.128-1.38,3.838-.422,2.126-2.189,4.376-3.336,3.452-5.565,4.846-10.94,6.564v-4.376C670.079,567.625,668.338,560.479,667.4,552.763ZM396.061,583.4c22.229,0.515,38.36,15.25,45.952,30.632,1.76-2.234.777-.6,2.188-4.376,3.174-5.008,1.135-9.747,6.565-13.128,18.175,16.874,33.227,20.087,43.763,45.949,8.084-8.633,11.543-19.709,24.07-24.069,8.936,14.119,21.834,15.988,45.952,15.317,7.478-7.03,20.216-9.085,26.259-17.5,5.358-7.466,5.569-18.764,10.94-26.256,3.49,4.924,3.585,4.589,6.565,4.376,14.089-15.29,19.716-33.683,45.952-37.2a411.788,411.788,0,0,0,19.694,45.949h-4.377c-3.981-3.8-10.078-6.281-15.317-8.752V600.9c4.278,5.69,3.359,12.144,6.564,19.692,8.075,19.011,24,37.17,30.635,56.889h-2.188l-24.07-8.752v28.445c5.929,8.337,9.435,25.816,10.941,37.2-20.571-7.451-33.824,5.977-48.14,10.94v-4.376c8.6-9.256,11.037-26,10.941-43.761h-2.189c-8.588,67.235-122.012,119.247-207.877,87.522-29.013-10.72-61.259-32.221-76.586-56.89-5.832-9.385-6.578-22-13.13-30.632v17.5c4.952,7.066,8.769,22.393,10.941,30.633h-2.188c-10.292-10.239-27.9-14.7-45.952-10.94v-4.377c10.26-13.139,13.173-38.981,13.129-61.265h-4.376c-5.008,4.619-12.678,6.065-21.882,6.564v-2.188c14.788-15.571,32.557-51.206,35.011-76.581h-4.376c-4.211,4.108-7.711,5.5-15.318,6.564V600.9c8.865-9.2,16.1-40.919,24.07-45.949,14.842,18.808,37.136,12.7,54.705,24.068,5.59,3.618,7.99,12.43,10.941,13.129C395.63,589.567,395.565,588.469,396.061,583.4Zm-105.033,37.2c5.564,3.185,2.469-.475,4.377,6.564-4.316,5.941-6.962,16.27-8.753,24.069h-2.188v-17.5C287.152,630.387,289.185,624.582,291.028,620.592Zm391.685,0h10.941q1.1,3.282,2.188,6.564c4.669,5.836,4.64,15.217,4.377,26.257h-2.188V655.6h-4.377C691.809,642.312,684.973,634.258,682.713,620.592ZM481.4,673.105l-19.693,45.949c9.895-.575,20.277-1.793,24.07,4.376-4.915,6.375-6.909,19.543-8.753,28.445h2.188c10.951-16.872,32.4-30.983,39.387-50.325-9.619.552-18.212,1.626-21.881-4.376,5.682-6.037,9.455-16.29,13.129-24.069H481.4ZM396.061,835.021H389.5V819.7c-4.992-2.68-4.926-3.584-13.129-4.376-3.737,5.963-5.55,5.466-6.565,15.316h-6.565c1.317-9.3,3.736-10.952,4.377-21.88-4.992-2.68-4.925-3.584-13.129-4.376a26.694,26.694,0,0,1-8.753,8.752v-4.376c-7.769-9.061-5.38-42.79,4.376-48.137,6.7,6.112,16.417,7.794,24.07,13.128,10.061,7.013,19.794,17.508,30.635,24.069,8.022,4.854,17.649,4.829,24.07,10.94L417.943,824.08h-2.188c-2.6-8.409-4.838-10.164-15.317-10.94a13.363,13.363,0,0,1-4.377,4.376v17.5ZM630.2,762.815c1.343,16.623,10.668,41.839-4.376,50.325-2.6-7.871-3.3-8-13.13-8.752-3,5.562-4.194,7.667-4.376,17.5,2.761,2.973,2.988,3.869,4.376,8.752h-6.564q-1.095-5.469-2.188-10.94c-5.291-2.849-6.2-3.941-15.318-4.376q-1.093,3.282-2.188,6.564c-3.064,4.6-1.643,8.353,0,13.129h-6.564v-17.5c-5.291-2.849-6.2-3.941-15.318-4.376-1.721,3.189-4.153,8.158-6.564,10.94q-5.47-6.562-10.941-13.128v-4.376C582.152,798.9,597.012,768.583,630.2,762.815Z"/>
  <path id="tongue" class="cls-4" d="M514.223,522.13c49.882-1.825,77.436,26.766,76.587,74.394-11.75,22.733-48.509,42.5-67.834,13.128L505.47,552.763c-9.707-13.879-26.853-16.725-50.328-17.5q1.1-3.282,2.188-6.565c34.974-7.538,58.037,3.211,76.587,17.5C529.375,533.727,522.129,530.59,514.223,522.13ZM481.4,673.105h28.447L496.718,701.55l21.881,2.188-10.94,10.94q-15.317,18.6-30.635,37.2,4.375-15.315,8.753-30.633v-2.188h-24.07v-2.188Q471.553,694.988,481.4,673.105Z"/>
  <path id="Shape_1_copy_4" data-name="Shape 1 copy 4" class="cls-5" d="M917.933,385.666c-13.324,48.28-73.4,57.668-78.042,57.668-37-53.645,0-168.535-118.492-292.366-56.628-68.4-185.112-91.644-221.754-92.091C775.172,47.7,934.588,285.528,917.933,385.666ZM382.106,464.345L147.979,446.911S136.507,187.994,400.665,96.876C144.007,134.442,113.716,437.523,113.716,437.523s-32.857,1.137-41.4,2.682C109.433,82.507,470.4,36.522,550.087,92.852,463.091,192.316,382.106,464.345,382.106,464.345ZM140.841,632.434c-35.681,7.588-37.118-4.471-37.118-4.471S60.9,547.5,70.412,461.216l39.5,8.494S101.81,504.144,140.841,632.434ZM377.347,499.662c-8.08,156.577,8.09,258.838,8.09,258.838s-138.011-23.246-184.161-66.61S143.22,479.545,143.22,475.522C204.616,472.057,309.765,502.232,377.347,499.662Z"/>
</svg>
